<svg width="30" height="30" viewBox="0 0 30 30" fill="none" xmlns="http://www.w3.org/2000/svg">
<path d="M15.0001 18.6797C13.5558 18.6797 12.3848 19.8502 12.3848 21.2949C12.3848 22.7394 13.5554 23.9101 15.0001 23.9101C16.4445 23.9101 17.6153 22.7396 17.6153 21.2949C17.6153 19.8505 16.4443 18.6797 15.0001 18.6797ZM22.0624 13.8015V7.86892C22.0624 3.97448 18.894 0.80661 15.0001 0.80661C11.1062 0.80661 7.93776 3.97454 7.93776 7.86892V9.35022H10.0378V7.86892C10.0378 5.13265 12.2638 2.90655 15.0001 2.90655C17.7364 2.90655 19.9625 5.13265 19.9625 7.86892V13.7441H8.55018C6.64793 13.7441 5.10023 15.2918 5.10023 17.1941V25.7441C5.10023 27.6463 6.64793 29.194 8.55018 29.194H21.4502C23.3524 29.194 24.9001 27.6463 24.9001 25.7441V17.1941C24.9001 15.501 23.6731 14.0918 22.0624 13.8018L22.0624 13.8015ZM22.8001 25.7441C22.8001 26.4884 22.1944 27.0941 21.4501 27.0941H8.55012C7.8058 27.0941 7.20018 26.4884 7.20018 25.7441V17.1941C7.20018 16.4498 7.8058 15.8442 8.55012 15.8442H21.4501C22.1944 15.8442 22.8001 16.4498 22.8001 17.1941V25.7441Z" fill="#25422D"/>
</svg>
