<svg width="31" height="30" viewBox="0 0 31 30" fill="none" xmlns="http://www.w3.org/2000/svg">
<path d="M15.5084 18.6797C14.0632 18.6797 12.8914 19.8502 12.8914 21.2949C12.8914 22.7394 14.0627 23.9101 15.5084 23.9101C16.9539 23.9101 18.1254 22.7396 18.1254 21.2949C18.1254 19.8505 16.9537 18.6797 15.5084 18.6797ZM22.5756 13.8015V7.86891C22.5756 3.97447 19.405 0.806602 15.5084 0.806602C11.6118 0.806602 8.44119 3.97453 8.44119 7.86891V13.8015C6.82944 14.0915 5.60152 15.5007 5.60152 17.1938V25.7438C5.60152 27.6461 7.15029 29.1938 9.05386 29.1938H21.9628C23.8664 29.1938 25.4152 27.6461 25.4152 25.7438V17.1938C25.4154 15.5007 24.1875 14.0916 22.5757 13.8015H22.5756ZM10.5426 7.86891C10.5426 5.13264 12.7703 2.90654 15.5085 2.90654C18.2466 2.90654 20.4743 5.13264 20.4743 7.86891V13.7441H10.5428L10.5426 7.86891ZM23.3138 25.7441C23.3138 26.4884 22.7078 27.094 21.9629 27.094H9.05398C8.30914 27.094 7.7031 26.4884 7.7031 25.7441V17.1941C7.7031 16.4498 8.30914 15.8442 9.05398 15.8442H21.9629C22.7078 15.8442 23.3138 16.4498 23.3138 17.1941V25.7441Z" fill="white"/>
</svg>
