<svg xmlns="http://www.w3.org/2000/svg" viewBox="0 0 100 100">
<path d="M 70.32 64.73 L 50.00 85.05 L 50 94.95 L 52.47 92.47 L 76.60 68.35 L 70.32 64.73 M 70.32 64.73 L 50.00 85.05 L 50 94.95 L 52.47 92.47 L 76.60 68.35 L 70.32 64.73 M 50 72 L 50 79 L 50.39 79 L 57.39 72 L 50 72 M 78.61 72 L 71.61 79 L 95.03 79 L 82.91 72 L 78.61 72 M 17.09 72 L 4.97 79 L 50 79 L 50 72 L 17.09 72 M 17.09 72 L 4.97 79 L 50 79 L 50 72 L 17.09 72 M 29.68 64.73 L 24.02 68 L 32.95 68 L 29.68 64.73 M 38.05 83 L 47.53 92.47 L 50 94.95 L 50 85.05 L 47.95 83 L 38.05 83 M 12.98 31.63 L 12.98 31.63 C 8.02 38.87 7.31 48.60 11.96 56.74 L 12.19 57.14 L 12.53 57.47 L 23.40 68.35 L 29.68 64.73 L 17.82 52.87 C 14.70 47.06 15.38 40.17 19.07 35.14 L 19.07 35.14 L 12.98 31.63 M 12.98 31.63 L 12.98 31.63 C 8.02 38.87 7.31 48.60 11.96 56.74 L 12.19 57.14 L 12.53 57.47 L 23.40 68.35 L 29.68 64.73 L 17.82 52.87 C 14.70 47.06 15.38 40.17 19.07 35.14 L 19.07 35.14 L 12.98 31.63 M 27.48 40 L 21.31 50.70 L 26.43 55.82 L 33.55 43.50 L 27.48 40 M 13.54 64.15 L 8.00 73.75 L 4.97 79 L 17.09 72 L 18.67 69.27 L 13.54 64.15 M 50 1 L 46.97 6.25 L 27.48 40.00 L 33.55 43.50 L 50 15.00 L 50 1 M 50 1 L 46.97 6.25 L 27.48 40.00 L 33.55 43.50 L 50 15.00 L 50 1 M 32.48 21.34 C 28.50 21.34 24.47 22.35 20.76 24.46 C 17.55 26.30 14.94 28.77 12.98 31.63 L 12.98 31.63 L 19.07 35.14 C 20.41 33.32 22.14 31.73 24.24 30.54 C 25.90 29.59 27.65 28.96 29.43 28.62 L 29.43 28.62 L 33.62 21.37 C 33.24 21.35 32.86 21.34 32.48 21.34 L 32.48 21.34 M 47.75 26.90 L 44.17 33.11 C 45.24 34.16 46.18 35.37 46.96 36.74 L 50 42.05 L 50 29.08 C 50 29.08 50 29.08 50 29.08 C 49.29 28.30 48.54 27.57 47.75 26.90 L 47.75 26.90 M 67.52 21.34 C 60.96 21.34 54.54 24.08 50.00 29.08 L 50 29.08 C 50.00 29.08 50.00 29.08 50.00 29.08 L 50 29.08 L 50 42.05 L 53.04 36.74 C 56.11 31.36 61.73 28.34 67.52 28.34 C 70.32 28.34 73.16 29.05 75.76 30.54 C 77.86 31.73 79.59 33.32 80.93 35.14 L 80.93 35.14 L 87.02 31.63 C 85.06 28.77 82.45 26.30 79.24 24.46 C 75.53 22.35 71.50 21.34 67.52 21.34 L 67.52 21.34 M 67.52 21.34 C 60.96 21.34 54.54 24.08 50.00 29.08 L 50 29.08 C 50.00 29.08 50.00 29.08 50.00 29.08 L 50 29.08 L 50 42.05 L 53.04 36.74 C 56.11 31.36 61.73 28.34 67.52 28.34 C 70.32 28.34 73.16 29.05 75.76 30.54 C 77.86 31.73 79.59 33.32 80.93 35.14 L 80.93 35.14 L 87.02 31.63 C 85.06 28.77 82.45 26.30 79.24 24.46 C 75.53 22.35 71.50 21.34 67.52 21.34 L 67.52 21.34 M 50 1 L 50 15.00 L 53.54 21.12 C 55.58 19.93 57.77 19.01 60.03 18.37 L 60.03 18.37 L 53.03 6.25 L 50 1 M 67.51 32.34 C 65.24 32.34 62.99 32.96 61.04 34.12 L 61.04 34.12 L 66.45 43.50 L 72.52 40 L 68.10 32.36 C 67.91 32.35 67.71 32.34 67.51 32.34 L 67.51 32.34 M 72.52 40.00 L 66.45 43.50 L 82.91 72 L 95.03 79.00 L 92.00 73.75 L 72.52 40.00 M 72.52 40.00 L 66.45 43.50 L 82.91 72 L 95.03 79.00 L 92.00 73.75 L 72.52 40.00 M 87.02 31.63 L 80.93 35.14 C 84.13 39.51 85.07 45.28 83.21 50.53 L 83.21 50.53 L 87.32 57.63 L 87.47 57.47 L 87.81 57.14 L 88.04 56.74 C 92.69 48.60 91.98 38.87 87.02 31.63 L 87.02 31.63 M 72.71 62.34 L 70.32 64.73 L 75.98 68 L 72.71 62.34"/>
</svg>

