<svg xmlns="http://www.w3.org/2000/svg" viewBox="0 0 100 100">
 <path d="m38.426 70.508c23.305 2.7539 34.898-8.2773 32.082-32.082l-1.3555-7.5742c-0.98438-5.8711-1.5352-16.824 3.75-22.109 1.4297-1.4297 1.4297-3.7422 0-5.168-1.4258-1.4258-3.7422-1.4258-5.168 0-7.0977 7.0977-6.9492 19.055-6.1328 25.949l1.332 7.5703c3.2969 20.141-4.293 26.551-18.211 26.5-3.0508-0.011719-5.8086-0.35547-7.6328-0.65625l-7.5703-1.332c-6.8945-0.81641-18.852-0.96484-25.949 6.1328-1.4258 1.4258-1.4258 3.7422 0 5.168 1.4258 1.4258 3.7422 1.4258 5.168 0 4.9961-4.9961 15.105-4.875 22.113-3.7305z"/>
 <path d="m88.52 37.039c2.9141-1.0039 5.6562-2.5195 7.9102-4.7734 1.4258-1.4258 1.4258-3.7422 0-5.168-1.4258-1.4258-3.7422-1.4258-5.168 0-0.96875 0.96875-2.1328 1.7344-3.418 2.3438l-14.375-14.375c-0.92969 2.6406-1.2188 5.9492-1.1289 9.2109l7.1211 7.1211c-2.1914 0.14844-4.3711 0.097656-6.3477-0.0625l1.1836 6.6406c0.03125 0.25 0.046875 0.49219 0.074219 0.74219 3.9922 0.19531 8.7617-0.027344 13.215-1.3828 0.32422-0.054688 0.63281-0.15625 0.93359-0.29688z"/>
 <path d="m44.164 38.402 14.555 14.555c0.92188-2.3711 1.3008-5.4453 1.1172-9.2188l-7.3594-7.3594c1.9531-0.11328 4.0977-0.074218 6.4844 0.16406l-1.1523-6.5742c-0.03125-0.25781-0.058594-0.53516-0.085938-0.80469-19.867-1.082-29.621 9.0664-28.562 28.562 0.26953 0.027344 0.55078 0.054688 0.80469 0.085938l0.21484 0.03125 6.4023 1.1289c-0.097656-1.1523-0.17188-2.3867-0.17578-3.6953-0.003906-0.92578 0.03125-1.8125 0.085938-2.6797l7.1445 7.1445c0.36719 0.011718 0.72266 0.03125 1.0977 0.035156 3.2891 0.011718 5.9648-0.38281 8.1055-1.168l-14.352-14.352c1.2422-2.5195 3.082-4.5039 5.6758-5.8555z"/>
 <path d="m37.039 88.516c0.13672-0.29688 0.23828-0.60547 0.29297-0.92188 1.3516-4.457 1.5742-9.2266 1.3828-13.219-0.25-0.027344-0.48828-0.042969-0.74219-0.074219l-0.21484-0.03125-6.4453-1.1367c0.17188 2.0469 0.21875 4.207 0.082031 6.3281l-7.1016-7.1016c-3.3086-0.10547-6.6016 0.1875-9.2266 1.1094l14.375 14.375c-0.61328 1.2891-1.3789 2.4492-2.3438 3.4141-1.4258 1.4258-1.4258 3.7422 0 5.168 1.4297 1.4297 3.7422 1.4258 5.168 0 2.2539-2.25 3.7734-4.9961 4.7734-7.9102z"/>
</svg>
