<svg xmlns="http://www.w3.org/2000/svg" viewBox="0 0 100 100">
 <g>
  <circle cx="49.9" cy="37.5" r="6"/>
  <path d="M57.2,48.2c-0.9-1.9-2.9-3.2-5.1-3.2h-4.4c-2.2,0-4.1,1.3-5.1,3.2l-5,10.6c-0.5,1.1-0.1,2.5,1.1,3.1 c0.3,0.2,0.7,0.2,1,0.2c0.9,0,1.7-0.5,2.1-1.3l3.2-6.8v2.4c0,3.5-0.2,7-0.7,10.4l-2.1,14.8c-0.2,1.5,0.8,2.8,2.3,3 c0.1,0,0.3,0,0.4,0c1.3,0,2.5-1,2.7-2.3l2.1-14.8c0.1-0.9,0.2-1.8,0.3-2.7c0.1,0.9,0.2,1.8,0.3,2.7l2.1,14.8 c0.2,1.3,1.3,2.3,2.7,2.3c0.1,0,0.3,0,0.4,0c1.5-0.2,2.5-1.6,2.3-3l-2.1-14.8c-0.5-3.4-0.7-6.9-0.7-10.4v-2.4l3.2,6.8 c0.5,1.1,1.9,1.6,3.1,1.1c1.1-0.5,1.6-1.9,1.1-3.1L57.2,48.2z"/>
  <circle cx="19.4" cy="22.4" r="7"/>
  <path d="M29.3,35.3C28,32.7,25.3,31,22.4,31h-5.9c-2.9,0-5.6,1.7-6.9,4.3L2.8,49.6c-0.7,1.6-0.1,3.4,1.5,4.1 c0.4,0.2,0.9,0.3,1.3,0.3c1.2,0,2.3-0.7,2.8-1.8l4.4-9.2v3.2c0,4.7-0.3,9.4-1,14.1L9,80.5c-0.3,2,1.1,3.8,3.1,4.1 c0.2,0,0.3,0,0.5,0c1.8,0,3.3-1.3,3.6-3.1L19,61.4c0.2-1.2,0.3-2.4,0.5-3.6c0.1,1.2,0.3,2.4,0.5,3.6l2.9,20.1 c0.3,1.8,1.8,3.1,3.6,3.1c0.2,0,0.3,0,0.5,0c2-0.3,3.4-2.1,3.1-4.1l-2.9-20.1c-0.7-4.6-1-9.4-1-14.1v-3.2l4.4,9.2 c0.7,1.5,2.6,2.2,4.1,1.5c1.5-0.7,2.2-2.6,1.5-4.1L29.3,35.3z"/>
  <circle cx="80.6" cy="22.4" r="7"/>
  <path d="M97.2,49.6l-6.8-14.3c-1.3-2.6-3.9-4.3-6.9-4.3h-5.9c-2.9,0-5.6,1.7-6.9,4.3l-6.8,14.3c-0.7,1.6-0.1,3.4,1.5,4.1 c0.4,0.2,0.9,0.3,1.3,0.3c1.2,0,2.3-0.7,2.8-1.8l4.4-9.2c0,0,0,4.2,0,4.4c-1,4-2.9,9.5-5.5,13.4c-1,1.5-0.4,3.6,1.3,4.1 c0.7,0.2,1.5,0.4,2.4,0.6l-2.1,14.9c-0.3,2,1.1,3.8,3.1,4.1c0.2,0,0.3,0,0.5,0c1.8,0,3.3-1.3,3.6-3.1l2.2-15.3c0.4,0,0.8,0,1.1,0 c0.4,0,0.8,0,1.1,0l2.2,15.3c0.3,1.8,1.8,3.1,3.6,3.1c0.2,0,0.3,0,0.5,0c2-0.3,3.4-2.1,3.1-4.1l-2.1-14.9 c0.9-0.2,1.7-0.4,2.4-0.6c1.7-0.6,2.3-2.7,1.3-4.1c-2.6-3.9-4.4-9.4-5.5-13.4c0-0.2,0-4.4,0-4.4l4.4,9.2c0.7,1.5,2.6,2.2,4.1,1.5 C97.3,53,97.9,51.2,97.2,49.6z"/>
 </g>
</svg>
