<svg xmlns="http://www.w3.org/2000/svg" viewBox="0 0 21 21">
<path d="M7,8.999 C7,6.242 9.243,3.999 12,3.999 C14.757,3.999 17,6.242 17,8.999 C17,11.756 14.757,13.999 12,13.999 C9.243,13.999 7,11.756 7,8.999 M19,8.999 C19,5.14 15.859,1.999 12,1.999 C8.141,1.999 5,5.14 5,8.999 C5,12.518 7.613,15.432 11,15.919 L11,17.999 L8,17.999 L8,19.999 L11,19.999 L11,22.999 L13,22.999 L13,19.999 L16,19.999 L16,17.999 L13,17.999 L13,15.919 C16.387,15.432 19,12.518 19,8.999" transform="translate(-1.5,-2)"/>
</svg>
