<svg xmlns="http://www.w3.org/2000/svg" viewBox="0 0 100 100">
 <g fill="white">
  <path d="m49.383 13.762-9.4844 13.297c-0.16406 0.23047-0.1875 0.53906-0.058594 0.78906 0.12891 0.25391 0.39062 0.41406 0.67578 0.41406h18.969c0.28516 0 0.54688-0.16016 0.67578-0.41406 0.12891-0.25 0.10547-0.55859-0.058594-0.78906l-9.4844-13.297c-0.14453-0.19922-0.37109-0.32031-0.61719-0.32031s-0.47266 0.12109-0.61719 0.32031z"/>
  <path d="m40.516 71.742c-0.28516 0-0.54688 0.16016-0.67578 0.41406s-0.10547 0.55859 0.058594 0.78906l9.4844 13.301v-0.003906c0.14453 0.19922 0.37109 0.32031 0.61719 0.32031s0.47266-0.12109 0.61719-0.32031l9.4844-13.301v0.003906c0.16406-0.23047 0.1875-0.53516 0.058594-0.78906s-0.39062-0.41406-0.67578-0.41406z"/>
  <path d="m75.305 63.473v-26.941c0-2.0273-1.6445-3.6719-3.6719-3.6758h-43.266c-2.0273 0.003906-3.6719 1.6484-3.6719 3.6758v26.941c0 0.97266 0.38672 1.9062 1.0781 2.5977 0.6875 0.6875 1.6211 1.0742 2.5938 1.0742h43.266c2.0273 0 3.6719-1.6445 3.6719-3.6719z"/>
 </g>
</svg>
