<svg xmlns="http://www.w3.org/2000/svg" viewBox="0 0 21 21">
<path d="M13.5352,17.5342 C11.5862,19.4832 8.4142,19.4832 6.4652,17.5342 C5.5202,16.5902 5.0002,15.3342 5.0002,13.9992 C5.0002,12.6632 5.5202,11.4072 6.4652,10.4632 C7.4392,9.4882 8.7202,9.0012 10.0002,9.0012 C11.2802,9.0012 12.5602,9.4882 13.5352,10.4632 C14.4792,11.4072 15.0002,12.6632 15.0002,13.9992 C15.0002,15.3342 14.4792,16.5902 13.5352,17.5342 Z M14.0002,2.9992 L14.0002,4.9992 L17.5862,4.9992 L14.1852,8.3982 C11.4462,6.3492 7.5392,6.5602 5.0512,9.0492 C3.7282,10.3702 3.0002,12.1292 3.0002,13.9992 C3.0002,15.8682 3.7282,17.6272 5.0512,18.9482 C6.4152,20.3132 8.2072,20.9952 10.0002,20.9952 C11.7922,20.9952 13.5852,20.3122 14.9492,18.9482 C16.2712,17.6272 17.0002,15.8682 17.0002,13.9992 C17.0002,12.4672 16.5042,11.0142 15.6002,9.8112 L19.0002,6.4132 L19.0002,9.9992 L21.0002,9.9992 L21.0002,2.9992 L14.0002,2.9992 Z" fill="#000000" transform="translate(-1.5,-1.5)"/>
</svg>
