<svg xmlns="http://www.w3.org/2000/svg" viewBox="0 0 100 125"><path fill="currentColor" d="M48,44.78c-4-0.92-7-4.51-7-8.78v-9c0-4.27,3-7.86,7-8.78V5h-7c-12.15,0-22,9.85-22,22v25h29V44.78z"/><path fill="currentColor" d="M59,5h-7v13.22c4,0.92,7,4.51,7,8.78v9c0,4.27-3,7.86-7,8.78V52h29V27C81,14.85,71.15,5,59,5z"/><path fill="currentColor" d="M19,73c0,12.15,9.85,22,22,22h18c12.15,0,22-9.85,22-22V54H19V73z"/><path fill="currentColor" d="M45,27v9c0,2.761,2.239,5,5,5c2.762,0,5-2.239,5-5v-9c0-2.761-2.238-5-5-5C47.239,22,45,24.239,45,27z"/></svg>
