<svg xmlns="http://www.w3.org/2000/svg" viewBox="0 0 100 100">
 <g transform="translate(33 0)">
  <circle cx="19.4" cy="22.4" r="7"/>
  <path d="M29.3,35.3C28,32.7,25.3,31,22.4,31h-5.9c-2.9,0-5.6,1.7-6.9,4.3L2.8,49.6c-0.7,1.6-0.1,3.4,1.5,4.1 c0.4,0.2,0.9,0.3,1.3,0.3c1.2,0,2.3-0.7,2.8-1.8l4.4-9.2v3.2c0,4.7-0.3,9.4-1,14.1L9,80.5c-0.3,2,1.1,3.8,3.1,4.1 c0.2,0,0.3,0,0.5,0c1.8,0,3.3-1.3,3.6-3.1L19,61.4c0.2-1.2,0.3-2.4,0.5-3.6c0.1,1.2,0.3,2.4,0.5,3.6l2.9,20.1 c0.3,1.8,1.8,3.1,3.6,3.1c0.2,0,0.3,0,0.5,0c2-0.3,3.4-2.1,3.1-4.1l-2.9-20.1c-0.7-4.6-1-9.4-1-14.1v-3.2l4.4,9.2 c0.7,1.5,2.6,2.2,4.1,1.5c1.5-0.7,2.2-2.6,1.5-4.1L29.3,35.3z"/>
 </g>
</svg>
