<svg xmlns="http://www.w3.org/2000/svg" viewBox="0 0 100 125"><path fill="currentColor" d="M82,47.1c-1,0-1.9,0.3-2.7,0.9v16.2h-1.8v-21c0-2.6-2.1-4.6-4.6-4.6c-0.9,0-1.9,0.3-2.7,0.9v21.8h-1.8V39.2  c0-2.6-2.1-4.6-4.6-4.6c-2.6,0-4.6,2.1-4.6,4.6v19.1h-1.8V18.6c0-2.6-2.1-4.6-4.6-4.6c-2.6,0-4.6,2.1-4.6,4.6V74h-1.8L31.5,59  c-0.8-0.8-2-1.3-3.2-1.3c-2.6,0-4.6,2.1-4.6,4.6c0,1.2,0.4,2.3,1.3,3.2l28.8,28.8c3.6,3.6,8.5,5.6,13.6,5.6  c10.6,0,19.2-8.5,19.2-19.1V51.7C86.6,49.1,84.5,47.1,82,47.1z M91.1,0H8.9C6.4,0,4.4,2,4.4,4.6v59.3c0,2.5,2,4.6,4.6,4.6h13.8  l-0.3-0.3c-1.5-1.5-2.4-3.6-2.4-5.8c0-4.5,3.7-8.2,8.2-8.2c2.2,0,4.3,0.9,5.8,2.4L44.5,67V18.6c0-4.5,3.7-8.2,8.2-8.2  s8.2,3.7,8.2,8.2v12.8c0.9-0.3,1.8-0.5,2.7-0.5c3,0,5.7,1.6,7.2,4.2c0.6-0.2,1.3-0.2,1.9-0.2c4.5,0,8.2,3.7,8.2,8.2v0.4  c0.3,0,0.6-0.1,0.9-0.1c4.5,0,8.2,3.7,8.2,8.2v16.7h0.9c2.5,0,4.6-2,4.6-4.6V4.6C95.6,2,93.6,0,91.1,0z"/></svg>
